<?xml version="1.0" encoding="utf-8"?>
<!-- Generator: Adobe Illustrator 17.0.2, SVG Export Plug-In . SVG Version: 6.00 Build 0)  -->
<!DOCTYPE svg PUBLIC "-//W3C//DTD SVG 1.1//EN" "http://www.w3.org/Graphics/SVG/1.1/DTD/svg11.dtd">
<svg version="1.1" id="Layer_1" xmlns="http://www.w3.org/2000/svg" xmlns:xlink="http://www.w3.org/1999/xlink" x="0px" y="0px"
	 width="415px" height="127px" viewBox="0 0 415 127" enable-background="new 0 0 415 127" xml:space="preserve">
<rect x="11.051" y="9.643" fill="#2D3642" width="50.767" height="50.767"/>
<g>
	<path fill="#FFFFFF" d="M30.443,51.026h-2.037V21.831h15.995v1.877H30.443v12.381h13.18v1.897h-13.18V51.026z"/>
</g>
<rect x="11.051" y="66.348" fill="#2D3642" width="50.767" height="50.767"/>
<g>
	<path fill="#FFFFFF" d="M30.443,107.732h-2.037V78.537h15.995v1.877H30.443v12.381h13.18v1.897h-13.18V107.732z"/>
</g>
<rect x="68.163" y="9.643" fill="#2D3642" width="50.767" height="50.767"/>
<g>
	<path fill="#FFFFFF" d="M86.929,51.026V21.831h2.037v27.278h13.918v1.917H86.929z"/>
</g>
<rect x="125.276" y="9.643" fill="#2D3642" width="50.767" height="50.767"/>
<g>
	<path fill="#FFFFFF" d="M159.291,51.026h-15.955V21.831h15.955v1.877h-13.918v11.043h13.14v1.877h-13.14v12.521h13.918V51.026z"/>
</g>
<rect x="182.388" y="9.643" fill="#2D3642" width="50.767" height="50.767"/>
<g>
	<path fill="#FFFFFF" d="M219.026,51.026h-2.336l-8.627-13.619l-8.786,13.619h-2.257l9.825-15.217l-8.927-13.979h2.297l7.888,12.501
		l8.008-12.501h2.177l-9.046,13.938L219.026,51.026z"/>
</g>
<rect x="239.158" y="9.643" fill="#2D3642" width="50.767" height="50.767"/>
<g>
	<path fill="#FFFFFF" d="M255.808,21.831h8.008c3.607,0,6.257,0.612,7.947,1.837c1.691,1.225,2.536,3.076,2.536,5.552
		c0,1.691-0.516,3.099-1.547,4.224c-1.032,1.125-2.54,1.847-4.523,2.167v0.12c2.329,0.346,4.044,1.082,5.143,2.207
		c1.098,1.125,1.647,2.692,1.647,4.703c0,2.689-0.893,4.76-2.677,6.21c-1.784,1.451-4.312,2.177-7.588,2.177h-8.946V21.831z
		 M257.845,34.831h6.43c2.742,0,4.736-0.456,5.981-1.368c1.244-0.912,1.867-2.34,1.867-4.284c0-1.943-0.703-3.355-2.107-4.233
		c-1.404-0.879-3.498-1.318-6.28-1.318h-5.891V34.831z M257.845,36.628v12.601h6.869c5.405,0,8.107-2.196,8.107-6.59
		c0-4.007-2.849-6.011-8.547-6.011C264.274,36.628,257.845,36.628,257.845,36.628z"/>
</g>
<rect x="296.085" y="9.643" fill="#2D3642" width="50.767" height="50.767"/>
<g>
	<path fill="#FFFFFF" d="M334.455,36.389c0,4.633-1.158,8.297-3.475,10.993s-5.512,4.044-9.585,4.044
		c-4.061,0-7.249-1.348-9.565-4.044s-3.475-6.373-3.475-11.033c0-4.646,1.168-8.304,3.505-10.973
		c2.336-2.669,5.527-4.004,9.575-4.004c4.073,0,7.262,1.341,9.565,4.024C333.304,28.078,334.455,31.743,334.455,36.389z
		 M310.572,36.389c0,4.181,0.932,7.412,2.796,9.695c1.863,2.283,4.539,3.425,8.027,3.425c3.515,0,6.2-1.131,8.058-3.395
		c1.857-2.263,2.786-5.504,2.786-9.725c0-4.207-0.929-7.432-2.786-9.675c-1.857-2.243-4.53-3.365-8.018-3.365
		c-3.475,0-6.154,1.132-8.038,3.395S310.572,32.222,310.572,36.389z"/>
</g>
<rect x="353.197" y="9.643" fill="#2D3642" width="50.767" height="50.767"/>
<g>
	<path fill="#FFFFFF" d="M389.834,51.026h-2.336l-8.627-13.619l-8.786,13.619h-2.257l9.825-15.217l-8.927-13.979h2.297l7.888,12.501
		l8.008-12.501h2.177l-9.046,13.94L389.834,51.026z"/>
</g>
<rect x="68.122" y="66.348" fill="#2D3642" width="50.767" height="50.767"/>
<g>
	<path fill="#FFFFFF" d="M87.514,95.011v12.721h-2.037V78.537h6.949c3.621,0,6.297,0.669,8.027,2.007s2.597,3.352,2.597,6.041
		c0,1.957-0.517,3.607-1.548,4.952c-1.032,1.345-2.6,2.31-4.703,2.896l7.928,13.3h-2.436l-7.528-12.721h-7.249V95.011z
		 M87.514,93.253h5.571c2.463,0,4.373-0.549,5.731-1.647c1.357-1.098,2.036-2.719,2.036-4.862c0-2.223-0.665-3.841-1.996-4.853
		c-1.332-1.012-3.502-1.518-6.511-1.518h-4.832L87.514,93.253L87.514,93.253z"/>
</g>
<rect x="125.282" y="66.348" fill="#2D3642" width="50.767" height="50.767"/>
<g>
	<path fill="#FFFFFF" d="M149.392,107.732V78.537h2.037v29.195H149.392z"/>
</g>
<rect x="182.388" y="66.348" fill="#2D3642" width="50.767" height="50.767"/>
<g>
	<path fill="#FFFFFF" d="M219.793,92.854c0,4.899-1.285,8.604-3.854,11.113c-2.569,2.51-6.344,3.765-11.322,3.765h-6.989V78.537
		h7.888c4.659,0,8.204,1.218,10.634,3.654S219.793,88.181,219.793,92.854z M217.576,92.934c0-4.18-1.062-7.325-3.185-9.436
		c-2.124-2.109-5.242-3.165-9.356-3.165h-5.371v25.601h4.832C213.216,105.934,217.576,101.601,217.576,92.934z"/>
</g>
<rect x="239.159" y="66.348" fill="#2D3642" width="50.767" height="50.767"/>
<g>
	<path fill="#FFFFFF" d="M271.277,97.427h-11.862l-4.073,10.305h-2.257l11.742-29.315h1.298l11.502,29.315h-2.296L271.277,97.427z
		 M260.153,95.59h10.444l-3.975-10.524c-0.333-0.825-0.732-1.97-1.198-3.435c-0.359,1.278-0.752,2.437-1.178,3.475L260.153,95.59z"
		/>
</g>
<rect x="296.085" y="66.348" fill="#2D3642" width="50.767" height="50.767"/>
<g>
	<path fill="#FFFFFF" d="M322.264,94.512l8.547-15.976h2.196l-9.725,17.912v11.283h-2.098V96.609l-9.765-18.072h2.337
		L322.264,94.512z"/>
</g>
<rect x="353.197" y="66.348" fill="#2D3642" width="50.767" height="50.767"/>
<g>
	<path fill="#FFFFFF" d="M388.077,100.204c0,2.436-0.896,4.366-2.686,5.791c-1.791,1.425-4.171,2.137-7.14,2.137
		c-3.567,0-6.304-0.394-8.207-1.179v-2.037c2.104,0.893,4.785,1.339,8.048,1.339c2.396,0,4.296-0.55,5.701-1.647
		c1.404-1.099,2.106-2.54,2.106-4.324c0-1.104-0.233-2.02-0.699-2.745s-1.225-1.389-2.276-1.987s-2.596-1.245-4.633-1.938
		c-2.982-1.024-5.042-2.133-6.181-3.324c-1.138-1.191-1.707-2.779-1.707-4.763c0-2.184,0.855-3.964,2.566-5.342
		c1.71-1.378,3.91-2.067,6.6-2.067c2.742,0,5.318,0.52,7.729,1.558l-0.739,1.758c-2.423-1.012-4.739-1.518-6.949-1.518
		c-2.157,0-3.874,0.499-5.152,1.497c-1.278,0.999-1.917,2.356-1.917,4.074c0,1.078,0.196,1.964,0.589,2.656s1.035,1.314,1.927,1.867
		c0.893,0.552,2.423,1.215,4.594,1.986c2.276,0.786,3.986,1.548,5.132,2.287c1.145,0.738,1.98,1.577,2.506,2.516
		C387.815,97.737,388.077,98.873,388.077,100.204z"/>
</g>
</svg>
