<?xml version="1.0" encoding="utf-8"?>
<!-- Generator: Adobe Illustrator 17.0.2, SVG Export Plug-In . SVG Version: 6.00 Build 0)  -->
<!DOCTYPE svg PUBLIC "-//W3C//DTD SVG 1.1//EN" "http://www.w3.org/Graphics/SVG/1.1/DTD/svg11.dtd">
<svg version="1.1" id="Layer_1" xmlns="http://www.w3.org/2000/svg" xmlns:xlink="http://www.w3.org/1999/xlink" x="0px" y="0px"
	 width="100px" height="100px" viewBox="0 0 100 100" enable-background="new 0 0 100 100" xml:space="preserve">
<path fill-rule="evenodd" clip-rule="evenodd" fill="#9AB2C1" d="M49.919,3.033c-25.896,0-46.967,21.071-46.967,46.967
	c0,25.896,21.071,46.966,46.967,46.966c26.057,0,47.129-21.07,47.129-46.966C97.048,24.105,75.977,3.033,49.919,3.033
	 M47.744,34.707V50.33c0,0.079-0.003,0.157-0.006,0.235c-0.042,1.262-0.416,2.44-1.039,3.449c-0.247,0.475-0.482,0.861-0.629,1.099
	c-0.255,0.411-8.657,12.364-8.657,12.364l-3.409,4.827c-1.948,2.782-4.644,3.055-7.195,1.269c-2.55-1.786-3.216-4.412-1.268-7.195
	c0,0,6.224-8.909,8.96-12.827c0.661-0.946,1.119-1.602,1.236-1.77c0.044-0.063,0.085-0.122,0.125-0.181
	c0.938-1.217,1.505-2.718,1.546-4.347c0.007-0.167,0.005-0.268,0.005-0.268V44.15V29.335c0-3.397,2.052-5.165,5.165-5.165
	c3.115,0,5.166,1.769,5.166,5.165V34.707z M73.192,73.571c-2.551,1.787-5.247,1.514-7.195-1.269l-3.408-4.827
	c0,0-8.403-11.953-8.657-12.364c-0.147-0.238-0.382-0.624-0.629-1.099c-0.624-1.008-0.998-2.186-1.039-3.449
	c-0.003-0.078-0.006-0.156-0.006-0.235V34.707v-5.373c0-3.397,2.052-5.165,5.166-5.165c3.113,0,5.165,1.769,5.165,5.165V44.15v2.835
	c0,0-0.002,0.101,0.005,0.268c0.041,1.629,0.609,3.13,1.547,4.347c0.04,0.058,0.081,0.118,0.125,0.181
	c0.117,0.168,0.575,0.824,1.236,1.77c2.736,3.917,8.96,12.827,8.96,12.827C76.408,69.159,75.742,71.785,73.192,73.571"/>
</svg>
